<svg class="svg-icon" style="width: 1em;height: 1em;vertical-align: middle;fill: currentColor;overflow: hidden;" viewBox="0 0 1024 1024" version="1.1" xmlns="http://www.w3.org/2000/svg"><path d="M320 1013.76a310.4 310.4 0 0 1-219.52-529.92L192 392.96a33.28 33.28 0 1 1 47.36 47.36L148.48 531.2a241.92 241.92 0 0 0 0 343.68 248.32 248.32 0 0 0 343.68 0l87.04-87.04a34.56 34.56 0 0 1 48 0 33.92 33.92 0 0 1 0 47.36l-87.68 87.68A309.12 309.12 0 0 1 320 1013.76zM809.6 640a33.28 33.28 0 0 1-24.32-10.24 33.92 33.92 0 0 1 0-47.36l90.88-90.24A243.2 243.2 0 0 0 531.84 147.2L448 234.24a33.28 33.28 0 0 1-47.36-47.36l83.84-87.04a310.4 310.4 0 0 1 439.04 439.04L832 629.12a33.28 33.28 0 0 1-22.4 10.88z" fill="#323333" /><path d="M328.96 768a69.12 69.12 0 0 1-47.36-19.2 67.84 67.84 0 0 1 0-95.36l371.2-371.2a67.2 67.2 0 1 1 95.36 95.36l-371.2 371.2a69.12 69.12 0 0 1-48 19.2z" fill="#323333" /></svg>